<?xml version="1.0" standalone="no"?>
<!DOCTYPE svg PUBLIC "-//W3C//DTD SVG 20010904//EN"
 "http://www.w3.org/TR/2001/REC-SVG-20010904/DTD/svg10.dtd">
<svg version="1.0" xmlns="http://www.w3.org/2000/svg"
 width="720.000000pt" height="1280.000000pt" viewBox="0 0 720.000000 1280.000000"
 preserveAspectRatio="xMidYMid meet">

<g transform="translate(0.000000,1280.000000) scale(0.100000,-0.100000)"
fill="#000000" stroke="none">
<path d="M1822 7405 c0 -16 2 -22 5 -12 2 9 2 23 0 30 -3 6 -5 -1 -5 -18z"/>
<path d="M1819 6985 l-4 -380 -42 2 c-33 1 -43 -2 -43 -14 0 -31 -244 -553
-254 -543 -5 5 -67 119 -137 252 -70 134 -134 255 -143 271 -15 27 -16 27
-118 26 -76 -1 -92 -3 -60 -8 23 -4 48 -13 54 -19 13 -13 18 -608 5 -654 -5
-20 -14 -28 -30 -29 -12 0 -31 -4 -42 -9 -13 -5 25 -8 100 -8 104 0 114 2 73
10 -27 6 -50 17 -54 26 -4 10 -9 121 -11 247 -2 127 -4 265 -6 307 -1 42 1 74
5 70 4 -4 78 -146 166 -316 87 -171 163 -311 168 -313 5 -2 41 70 79 159 38
90 104 240 147 333 l78 170 0 -325 c0 -241 -3 -329 -12 -338 -7 -7 -25 -12
-40 -12 -15 0 -28 -4 -28 -10 0 -6 27 -10 61 -10 l60 0 -6 -47 c-16 -116 -56
-194 -138 -270 -106 -98 -271 -137 -415 -99 -206 55 -382 312 -409 599 -3 37
-10 67 -15 67 -5 0 -7 -10 -4 -22 3 -13 3 -17 0 -10 -8 18 -27 15 -20 -3 4
-13 2 -13 -14 -5 -17 9 -19 6 -22 -27 l-4 -38 -11 35 -11 35 -1 -35 c-1 -19 6
-68 15 -109 60 -292 212 -500 423 -582 69 -27 246 -32 326 -10 141 39 296 161
348 275 31 64 57 163 57 214 0 17 5 32 10 32 6 0 10 5 10 10 0 6 -8 10 -18 10
-37 0 -42 19 -41 170 l1 145 44 -90 c57 -117 68 -173 62 -315 -4 -94 -11 -131
-35 -202 -75 -217 -227 -374 -425 -439 -65 -21 -91 -24 -238 -24 -149 0 -171
2 -230 24 -169 62 -323 211 -414 401 -20 41 -36 80 -36 87 0 15 -32 33 -58 33
-15 0 -19 -5 -15 -20 4 -14 0 -20 -11 -20 -9 0 -16 6 -16 14 0 8 -4 17 -10 21
-35 22 84 -251 148 -337 69 -94 192 -200 283 -246 126 -63 188 -76 364 -76
126 0 163 3 229 22 258 74 456 271 544 542 23 70 41 179 42 248 0 47 0 47 93
42 56 -2 65 17 10 22 -34 3 -38 6 -40 33 -1 17 12 68 30 115 l33 85 136 3 136
3 30 -83 c16 -46 33 -97 36 -115 7 -30 5 -33 -21 -39 -53 -11 -48 -12 53 -13
56 -1 116 -4 133 -7 20 -4 31 -3 31 5 0 6 -13 11 -28 11 -16 0 -36 6 -45 13
-14 10 -154 372 -247 640 -13 37 -29 67 -35 67 -6 0 -70 -150 -143 -333 -73
-184 -140 -344 -149 -357 -16 -22 -17 -20 -39 76 -12 54 -47 182 -77 284 -60
203 -82 303 -68 308 5 2 6 17 1 35 -4 18 -11 109 -14 202 -5 154 -23 317 -45
414 l-9 36 -3 -35 c-1 -19 -5 1 -9 45 -4 46 -8 -81 -11 -300z m61 -409 c0 -3
-4 -8 -10 -11 -5 -3 -10 -1 -10 4 0 6 5 11 10 11 6 0 10 -2 10 -4z m532 -261
l57 -165 -125 0 c-68 0 -124 3 -124 7 0 15 123 323 129 323 3 0 32 -74 63
-165z"/>
<path d="M3112 6590 c-72 -26 -112 -52 -162 -106 -169 -184 -106 -500 119
-585 112 -42 215 -46 328 -11 45 13 55 21 78 64 31 56 22 63 -18 13 -45 -57
-99 -79 -192 -79 -68 -1 -88 3 -138 27 -201 99 -238 460 -63 614 25 22 62 45
84 51 50 15 140 15 198 1 52 -13 114 -66 114 -98 0 -11 5 -21 10 -21 6 0 10
29 10 66 0 51 -3 65 -13 61 -8 -3 -40 1 -73 9 -86 20 -217 17 -282 -6z"/>
<path d="M4825 6573 c-9 -21 -63 -158 -120 -304 -57 -146 -113 -286 -124 -312
-20 -47 -43 -66 -83 -69 -13 -1 22 -4 77 -8 55 -4 107 -3 115 1 10 6 3 8 -21
9 -68 0 -72 27 -23 166 l27 74 133 0 133 0 19 -52 c39 -105 54 -159 49 -173
-3 -7 -18 -15 -34 -18 -15 -2 31 -4 102 -4 72 -1 121 1 110 4 -11 2 -30 6 -42
8 -26 6 -45 49 -183 433 -57 155 -107 282 -111 282 -5 0 -16 -17 -24 -37z m45
-245 c29 -84 55 -159 57 -165 4 -10 -24 -13 -120 -13 l-125 0 62 165 c33 90
64 165 67 165 3 0 30 -69 59 -152z"/>
<path d="M6519 6582 c-39 -20 -58 -38 -76 -71 -48 -91 -22 -168 87 -259 161
-134 185 -167 178 -244 -16 -159 -269 -174 -294 -18 -10 60 -26 35 -22 -35 3
-58 3 -58 43 -72 59 -21 172 -20 215 2 58 29 99 75 115 129 31 103 -5 174
-143 281 -132 103 -164 163 -126 236 25 50 113 74 178 49 27 -10 56 -56 56
-90 0 -11 5 -20 10 -20 6 0 10 28 10 64 l0 63 -37 7 c-82 13 -139 7 -194 -22z"/>
<path d="M3663 6590 c21 -4 43 -12 50 -19 16 -16 14 -629 -3 -660 -8 -15 -20
-21 -47 -21 -77 0 -21 -10 77 -14 106 -5 161 5 80 14 -69 8 -70 10 -70 353 l0
298 168 -208 c277 -346 366 -453 373 -453 5 0 9 153 11 340 2 247 6 342 15
351 7 7 29 15 50 19 25 5 -3 8 -82 8 -79 0 -106 -3 -77 -7 23 -4 48 -13 55
-20 9 -9 13 -84 15 -279 3 -235 1 -265 -12 -252 -19 20 -225 273 -351 433
l-100 127 -95 -1 c-71 -1 -85 -3 -57 -9z"/>
<path d="M5318 6589 c23 -4 47 -11 52 -14 13 -8 13 -644 1 -664 -5 -8 -29 -18
-53 -21 -26 -5 14 -8 107 -8 111 0 139 2 106 9 -24 5 -47 11 -50 15 -10 9 -13
656 -3 666 5 5 28 12 53 17 33 7 6 9 -106 9 -108 0 -138 -3 -107 -9z"/>
<path d="M5759 6589 c25 -5 48 -14 53 -21 10 -17 10 -639 -1 -656 -5 -8 -24
-18 -42 -22 -20 -5 74 -7 221 -7 l255 2 22 69 c13 38 21 71 19 74 -3 2 -16
-19 -31 -48 -35 -70 -62 -80 -210 -80 -115 0 -116 0 -125 26 -6 16 -9 149 -8
337 l3 312 50 11 c45 11 36 12 -100 12 -112 0 -139 -2 -106 -9z"/>
<path d="M711 6144 c0 -11 3 -14 6 -6 3 7 2 16 -1 19 -3 4 -6 -2 -5 -13z"/>
<path d="M2785 5517 c-47 -47 -49 -104 -6 -148 25 -25 37 -29 83 -29 71 0 80
8 76 61 -3 43 -4 44 -40 46 -21 1 -38 -2 -38 -7 0 -6 12 -10 26 -10 23 0 25
-3 22 -32 -3 -30 -6 -33 -40 -36 -64 -5 -106 58 -82 123 11 28 62 47 106 40
32 -6 39 -4 36 6 -3 9 -24 15 -57 17 -48 3 -55 0 -86 -31z"/>
<path d="M3152 5538 c-10 -13 -82 -181 -82 -192 0 -3 7 -6 15 -6 8 0 17 11 21
25 5 22 11 25 53 25 41 0 49 -3 59 -25 6 -14 18 -25 27 -25 8 0 15 1 15 3 0
14 -81 202 -88 205 -5 1 -14 -3 -20 -10z m16 -116 c-16 -2 -32 -1 -34 1 -3 2
3 24 12 47 l17 43 18 -44 17 -44 -30 -3z"/>
<path d="M3390 5445 l0 -105 61 0 c44 0 60 3 57 13 -3 6 -23 13 -46 15 l-42 3
0 90 c0 72 -3 89 -15 89 -12 0 -15 -18 -15 -105z"/>
<path d="M3610 5538 c0 -7 13 -53 28 -103 36 -117 53 -122 81 -27 12 38 21 74
21 81 0 22 18 10 25 -16 24 -103 37 -133 55 -133 14 0 23 17 40 72 29 95 36
138 22 138 -10 0 -22 -33 -50 -140 -11 -39 -11 -38 -42 68 -28 98 -46 95 -81
-13 l-26 -80 -17 60 c-9 33 -21 70 -26 83 -10 24 -30 30 -30 10z"/>
<path d="M4076 5541 c-8 -12 -76 -189 -76 -196 0 -3 6 -5 14 -5 8 0 17 11 20
25 6 22 12 25 55 25 42 0 49 -3 60 -26 6 -14 16 -24 22 -22 15 5 14 8 -26 113
-34 87 -54 111 -69 86z m40 -88 l13 -33 -35 0 c-39 0 -40 6 -18 58 11 25 18
32 21 22 3 -8 12 -30 19 -47z"/>
<path d="M4302 5493 c18 -32 35 -78 38 -103 7 -62 33 -62 40 0 3 26 19 68 38
98 37 60 37 62 18 62 -8 0 -27 -22 -43 -50 -15 -27 -30 -50 -33 -50 -3 0 -16
21 -30 47 -14 27 -33 49 -43 51 -15 3 -13 -6 15 -55z"/>
</g>
</svg>
